# MagicaVoxel @ Ephtracy

# group
g Grass Road

# material
mtllib Grass Road.mtl
usemtl palette

# normals
vn -1 0 0
vn 1 0 0
vn 0 0 1
vn 0 0 -1
vn 0 -1 0
vn 0 1 0

# texcoords
vt 0.630859 0.5
vt 0.962891 0.5
vt 0.978516 0.5
vt 0.982422 0.5

# verts
v -20 0 20
v -20 0 18
v -20 0 17
v -20 0 12
v -20 0 11
v -20 0 6
v -20 0 5
v -20 0 -20
v -20 1 20
v -20 1 18
v -20 1 17
v -20 1 12
v -20 1 11
v -20 1 6
v -20 1 5
v -20 1 -20
v 20 0 20
v 20 0 18
v 20 0 17
v 20 0 12
v 20 0 11
v 20 0 6
v 20 0 5
v 20 0 -20
v 20 1 20
v 20 1 18
v 20 1 17
v 20 1 12
v 20 1 11
v 20 1 6
v 20 1 5
v 20 1 -20
v -20 0 20
v -20 1 20
v 20 0 20
v 20 1 20
v -20 0 -20
v -20 1 -20
v 20 0 -20
v 20 1 -20
v -20 0 20
v 20 0 20
v -20 0 18
v 20 0 18
v -20 0 17
v 20 0 17
v -20 0 12
v -10 0 12
v -5 0 12
v 5 0 12
v 10 0 12
v 20 0 12
v -20 0 11
v -10 0 11
v -5 0 11
v 5 0 11
v 10 0 11
v 20 0 11
v -20 0 6
v 20 0 6
v -20 0 5
v 20 0 5
v -20 0 -20
v 20 0 -20
v -20 1 20
v 20 1 20
v -20 1 18
v 20 1 18
v -20 1 17
v 20 1 17
v -20 1 12
v -10 1 12
v -5 1 12
v 5 1 12
v 10 1 12
v 20 1 12
v -20 1 11
v -10 1 11
v -5 1 11
v 5 1 11
v 10 1 11
v 20 1 11
v -20 1 6
v 20 1 6
v -20 1 5
v 20 1 5
v -20 1 -20
v 20 1 -20

# faces
f 9/1/1 2/1/1 1/1/1
f 10/4/1 3/4/1 2/4/1
f 10/1/1 2/1/1 9/1/1
f 11/3/1 4/3/1 3/3/1
f 11/4/1 3/4/1 10/4/1
f 12/2/1 5/2/1 4/2/1
f 12/3/1 4/3/1 11/3/1
f 13/3/1 6/3/1 5/3/1
f 13/2/1 5/2/1 12/2/1
f 14/4/1 7/4/1 6/4/1
f 14/3/1 6/3/1 13/3/1
f 15/1/1 8/1/1 7/1/1
f 15/4/1 7/4/1 14/4/1
f 16/1/1 8/1/1 15/1/1
f 17/1/2 18/1/2 25/1/2
f 18/4/2 19/4/2 26/4/2
f 25/1/2 18/1/2 26/1/2
f 19/3/2 20/3/2 27/3/2
f 26/4/2 19/4/2 27/4/2
f 20/2/2 21/2/2 28/2/2
f 27/3/2 20/3/2 28/3/2
f 21/3/2 22/3/2 29/3/2
f 28/2/2 21/2/2 29/2/2
f 22/4/2 23/4/2 30/4/2
f 29/3/2 22/3/2 30/3/2
f 23/1/2 24/1/2 31/1/2
f 30/4/2 23/4/2 31/4/2
f 31/1/2 24/1/2 32/1/2
f 35/1/3 34/1/3 33/1/3
f 36/1/3 34/1/3 35/1/3
f 37/1/4 38/1/4 39/1/4
f 39/1/4 38/1/4 40/1/4
f 43/1/5 42/1/5 41/1/5
f 44/1/5 42/1/5 43/1/5
f 45/4/5 44/4/5 43/4/5
f 46/4/5 44/4/5 45/4/5
f 47/3/5 46/3/5 45/3/5
f 48/3/5 46/3/5 47/3/5
f 49/3/5 46/3/5 48/3/5
f 50/3/5 46/3/5 49/3/5
f 51/3/5 46/3/5 50/3/5
f 52/3/5 46/3/5 51/3/5
f 53/2/5 48/2/5 47/2/5
f 54/3/5 49/3/5 48/3/5
f 54/2/5 48/2/5 53/2/5
f 55/2/5 50/2/5 49/2/5
f 55/3/5 49/3/5 54/3/5
f 56/3/5 51/3/5 50/3/5
f 56/2/5 50/2/5 55/2/5
f 57/2/5 52/2/5 51/2/5
f 57/3/5 51/3/5 56/3/5
f 58/2/5 52/2/5 57/2/5
f 59/3/5 54/3/5 53/3/5
f 59/3/5 55/3/5 54/3/5
f 59/3/5 58/3/5 57/3/5
f 59/3/5 57/3/5 56/3/5
f 59/3/5 56/3/5 55/3/5
f 60/3/5 58/3/5 59/3/5
f 61/4/5 60/4/5 59/4/5
f 62/4/5 60/4/5 61/4/5
f 63/1/5 62/1/5 61/1/5
f 64/1/5 62/1/5 63/1/5
f 65/1/6 66/1/6 67/1/6
f 67/1/6 66/1/6 68/1/6
f 67/4/6 68/4/6 69/4/6
f 69/4/6 68/4/6 70/4/6
f 69/3/6 70/3/6 71/3/6
f 71/3/6 70/3/6 72/3/6
f 72/3/6 70/3/6 73/3/6
f 73/3/6 70/3/6 74/3/6
f 74/3/6 70/3/6 75/3/6
f 75/3/6 70/3/6 76/3/6
f 71/2/6 72/2/6 77/2/6
f 72/3/6 73/3/6 78/3/6
f 77/2/6 72/2/6 78/2/6
f 73/2/6 74/2/6 79/2/6
f 78/3/6 73/3/6 79/3/6
f 74/3/6 75/3/6 80/3/6
f 79/2/6 74/2/6 80/2/6
f 75/2/6 76/2/6 81/2/6
f 80/3/6 75/3/6 81/3/6
f 81/2/6 76/2/6 82/2/6
f 77/3/6 78/3/6 83/3/6
f 78/3/6 79/3/6 83/3/6
f 81/3/6 82/3/6 83/3/6
f 80/3/6 81/3/6 83/3/6
f 79/3/6 80/3/6 83/3/6
f 83/3/6 82/3/6 84/3/6
f 83/4/6 84/4/6 85/4/6
f 85/4/6 84/4/6 86/4/6
f 85/1/6 86/1/6 87/1/6
f 87/1/6 86/1/6 88/1/6
