# MagicaVoxel @ Ephtracy

# group
g Car Red

# material
mtllib Car Red.mtl
usemtl palette

# normals
vn -1 0 0
vn 1 0 0
vn 0 0 1
vn 0 0 -1
vn 0 -1 0
vn 0 1 0

# texcoords
vt 0.0410156 0.5
vt 0.138672 0.5
vt 0.306641 0.5
vt 0.849609 0.5
vt 0.958984 0.5
vt 0.970703 0.5
vt 0.978516 0.5
vt 0.986328 0.5
vt 0.990234 0.5
vt 0.994141 0.5

# verts
v -4 0 8
v -4 0 5
v -4 0 -4
v -4 0 -7
v -4 1 7
v -4 1 6
v -4 1 -5
v -4 1 -6
v -4 2 7
v -4 2 6
v -4 2 -5
v -4 2 -6
v -4 3 8
v -4 3 5
v -4 3 -4
v -4 3 -7
v -3 1 10
v -3 1 9
v -3 1 8
v -3 1 5
v -3 1 -4
v -3 1 -7
v -3 1 -8
v -3 1 -9
v -3 2 10
v -3 2 9
v -3 2 8
v -3 2 -7
v -3 2 -8
v -3 2 -9
v -3 3 9
v -3 3 8
v -3 3 5
v -3 3 -4
v -3 3 -7
v -3 3 -8
v -3 4 9
v -3 4 8
v -3 4 2
v -3 4 -0
v -3 5 9
v -3 5 3
v -3 5 -1
v -3 5 -3
v -3 5 -4
v -3 5 -8
v -3 7 2
v -3 7 -0
v -3 7 -1
v -3 7 -3
v -3 8 3
v -3 8 -4
v 2 0 8
v 2 0 5
v 2 0 -4
v 2 0 -7
v 2 1 8
v 2 1 5
v 2 1 -4
v 2 1 -7
v -2 0 8
v -2 0 5
v -2 0 -4
v -2 0 -7
v -2 1 8
v -2 1 5
v -2 1 -4
v -2 1 -7
v 3 1 10
v 3 1 9
v 3 1 8
v 3 1 5
v 3 1 -4
v 3 1 -7
v 3 1 -8
v 3 1 -9
v 3 2 10
v 3 2 9
v 3 2 8
v 3 2 -7
v 3 2 -8
v 3 2 -9
v 3 3 9
v 3 3 8
v 3 3 5
v 3 3 -4
v 3 3 -7
v 3 3 -8
v 3 4 9
v 3 4 8
v 3 4 2
v 3 4 -0
v 3 5 9
v 3 5 3
v 3 5 -1
v 3 5 -3
v 3 5 -4
v 3 5 -8
v 3 7 2
v 3 7 -0
v 3 7 -1
v 3 7 -3
v 3 8 3
v 3 8 -4
v 4 0 8
v 4 0 5
v 4 0 -4
v 4 0 -7
v 4 1 7
v 4 1 6
v 4 1 -5
v 4 1 -6
v 4 2 7
v 4 2 6
v 4 2 -5
v 4 2 -6
v 4 3 8
v 4 3 5
v 4 3 -4
v 4 3 -7
v -3 1 10
v -3 2 10
v 3 1 10
v 3 2 10
v -3 2 9
v -3 3 9
v -3 4 9
v -3 5 9
v -2 2 9
v -2 3 9
v -1 2 9
v -1 3 9
v -1 4 9
v 1 2 9
v 1 3 9
v 1 4 9
v 2 2 9
v 2 3 9
v 3 2 9
v 3 3 9
v 3 4 9
v 3 5 9
v -4 0 8
v -4 3 8
v -3 1 8
v -3 2 8
v -3 3 8
v -2 0 8
v -2 1 8
v 2 0 8
v 2 1 8
v 3 1 8
v 3 2 8
v 3 3 8
v 4 0 8
v 4 3 8
v -3 5 3
v -3 8 3
v -2 5 3
v -2 7 3
v 2 5 3
v 2 7 3
v 3 5 3
v 3 8 3
v -4 0 -4
v -4 3 -4
v -3 1 -4
v -3 3 -4
v -2 0 -4
v -2 1 -4
v 2 0 -4
v 2 1 -4
v 3 1 -4
v 3 3 -4
v 4 0 -4
v 4 3 -4
v -4 0 5
v -4 3 5
v -3 1 5
v -3 3 5
v -2 0 5
v -2 1 5
v 2 0 5
v 2 1 5
v 3 1 5
v 3 3 5
v 4 0 5
v 4 3 5
v -3 5 -4
v -3 8 -4
v -2 5 -4
v -2 7 -4
v 2 5 -4
v 2 7 -4
v 3 5 -4
v 3 8 -4
v -4 0 -7
v -4 3 -7
v -3 1 -7
v -3 2 -7
v -3 3 -7
v -2 0 -7
v -2 1 -7
v 2 0 -7
v 2 1 -7
v 3 1 -7
v 3 2 -7
v 3 3 -7
v 4 0 -7
v 4 3 -7
v -3 2 -8
v -3 3 -8
v -3 5 -8
v -2 2 -8
v -2 3 -8
v -1 2 -8
v -1 3 -8
v 1 2 -8
v 1 3 -8
v 2 2 -8
v 2 3 -8
v 3 2 -8
v 3 3 -8
v 3 5 -8
v -3 1 -9
v -3 2 -9
v 3 1 -9
v 3 2 -9
v -4 0 8
v -2 0 8
v 2 0 8
v 4 0 8
v -4 0 5
v -2 0 5
v 2 0 5
v 4 0 5
v -4 0 -4
v -2 0 -4
v 2 0 -4
v 4 0 -4
v -4 0 -7
v -2 0 -7
v 2 0 -7
v 4 0 -7
v -3 1 10
v 3 1 10
v -3 1 9
v 3 1 9
v -3 1 8
v -2 1 8
v 2 1 8
v 3 1 8
v -3 1 5
v -2 1 5
v 2 1 5
v 3 1 5
v -3 1 -4
v -2 1 -4
v 2 1 -4
v 3 1 -4
v -3 1 -7
v -2 1 -7
v 2 1 -7
v 3 1 -7
v -3 1 -8
v 3 1 -8
v -3 1 -9
v 3 1 -9
v -3 2 10
v 3 2 10
v -3 2 9
v -2 2 9
v -1 2 9
v 1 2 9
v 2 2 9
v 3 2 9
v -3 2 -8
v -2 2 -8
v -1 2 -8
v 1 2 -8
v 2 2 -8
v 3 2 -8
v -3 2 -9
v 3 2 -9
v -4 3 8
v -3 3 8
v 3 3 8
v 4 3 8
v -4 3 5
v -3 3 5
v 3 3 5
v 4 3 5
v -4 3 -4
v -3 3 -4
v 3 3 -4
v 4 3 -4
v -4 3 -7
v -3 3 -7
v 3 3 -7
v 4 3 -7
v -3 5 9
v 3 5 9
v -3 5 3
v -2 5 3
v 2 5 3
v 3 5 3
v -3 5 -4
v -2 5 -4
v 2 5 -4
v 3 5 -4
v -3 5 -8
v 3 5 -8
v -3 8 3
v 3 8 3
v -3 8 -4
v 3 8 -4

# faces
f 5/10/1 2/10/1 1/10/1
f 6/10/1 2/10/1 5/10/1
f 7/10/1 4/10/1 3/10/1
f 8/10/1 4/10/1 7/10/1
f 9/10/1 5/10/1 1/10/1
f 9/6/1 6/6/1 5/6/1
f 10/10/1 2/10/1 6/10/1
f 10/6/1 6/6/1 9/6/1
f 11/6/1 8/6/1 7/6/1
f 11/10/1 7/10/1 3/10/1
f 12/10/1 4/10/1 8/10/1
f 12/6/1 8/6/1 11/6/1
f 13/10/1 9/10/1 1/10/1
f 13/10/1 10/10/1 9/10/1
f 14/10/1 2/10/1 10/10/1
f 14/10/1 10/10/1 13/10/1
f 15/10/1 11/10/1 3/10/1
f 15/10/1 12/10/1 11/10/1
f 16/10/1 4/10/1 12/10/1
f 16/10/1 12/10/1 15/10/1
f 25/7/1 18/7/1 17/7/1
f 26/2/1 19/2/1 18/2/1
f 26/7/1 18/7/1 25/7/1
f 27/2/1 19/2/1 26/2/1
f 28/2/1 23/2/1 22/2/1
f 29/7/1 24/7/1 23/7/1
f 29/2/1 23/2/1 28/2/1
f 30/7/1 24/7/1 29/7/1
f 31/1/1 27/1/1 26/1/1
f 32/1/1 27/1/1 31/1/1
f 33/2/1 21/2/1 20/2/1
f 34/2/1 21/2/1 33/2/1
f 35/4/1 29/4/1 28/4/1
f 36/4/1 29/4/1 35/4/1
f 37/5/1 32/5/1 31/5/1
f 38/2/1 34/2/1 33/2/1
f 38/5/1 32/5/1 37/5/1
f 38/2/1 33/2/1 32/2/1
f 38/2/1 36/2/1 35/2/1
f 38/2/1 35/2/1 34/2/1
f 39/2/1 36/2/1 38/2/1
f 40/2/1 36/2/1 39/2/1
f 41/2/1 38/2/1 37/2/1
f 41/2/1 39/2/1 38/2/1
f 42/2/1 39/2/1 41/2/1
f 43/2/1 36/2/1 40/2/1
f 44/2/1 36/2/1 43/2/1
f 45/2/1 36/2/1 44/2/1
f 46/2/1 36/2/1 45/2/1
f 47/2/1 39/2/1 42/2/1
f 47/8/1 40/8/1 39/8/1
f 48/2/1 43/2/1 40/2/1
f 48/8/1 40/8/1 47/8/1
f 49/8/1 44/8/1 43/8/1
f 49/2/1 43/2/1 48/2/1
f 50/2/1 45/2/1 44/2/1
f 50/8/1 44/8/1 49/8/1
f 51/2/1 49/2/1 48/2/1
f 51/2/1 48/2/1 47/2/1
f 51/2/1 50/2/1 49/2/1
f 51/2/1 47/2/1 42/2/1
f 52/2/1 45/2/1 50/2/1
f 52/2/1 50/2/1 51/2/1
f 57/10/1 54/10/1 53/10/1
f 58/10/1 54/10/1 57/10/1
f 59/10/1 56/10/1 55/10/1
f 60/10/1 56/10/1 59/10/1
f 61/10/2 62/10/2 65/10/2
f 65/10/2 62/10/2 66/10/2
f 63/10/2 64/10/2 67/10/2
f 67/10/2 64/10/2 68/10/2
f 69/7/2 70/7/2 77/7/2
f 70/2/2 71/2/2 78/2/2
f 77/7/2 70/7/2 78/7/2
f 78/2/2 71/2/2 79/2/2
f 74/2/2 75/2/2 80/2/2
f 75/7/2 76/7/2 81/7/2
f 80/2/2 75/2/2 81/2/2
f 81/7/2 76/7/2 82/7/2
f 78/1/2 79/1/2 83/1/2
f 83/1/2 79/1/2 84/1/2
f 72/2/2 73/2/2 85/2/2
f 85/2/2 73/2/2 86/2/2
f 80/4/2 81/4/2 87/4/2
f 87/4/2 81/4/2 88/4/2
f 83/5/2 84/5/2 89/5/2
f 85/2/2 86/2/2 90/2/2
f 89/5/2 84/5/2 90/5/2
f 84/2/2 85/2/2 90/2/2
f 87/2/2 88/2/2 90/2/2
f 86/2/2 87/2/2 90/2/2
f 90/2/2 88/2/2 91/2/2
f 91/2/2 88/2/2 92/2/2
f 89/2/2 90/2/2 93/2/2
f 90/2/2 91/2/2 93/2/2
f 93/2/2 91/2/2 94/2/2
f 92/2/2 88/2/2 95/2/2
f 95/2/2 88/2/2 96/2/2
f 96/2/2 88/2/2 97/2/2
f 97/2/2 88/2/2 98/2/2
f 94/2/2 91/2/2 99/2/2
f 91/8/2 92/8/2 99/8/2
f 92/2/2 95/2/2 100/2/2
f 99/8/2 92/8/2 100/8/2
f 95/8/2 96/8/2 101/8/2
f 100/2/2 95/2/2 101/2/2
f 96/2/2 97/2/2 102/2/2
f 101/8/2 96/8/2 102/8/2
f 100/2/2 101/2/2 103/2/2
f 99/2/2 100/2/2 103/2/2
f 101/2/2 102/2/2 103/2/2
f 94/2/2 99/2/2 103/2/2
f 102/2/2 97/2/2 104/2/2
f 103/2/2 102/2/2 104/2/2
f 105/10/2 106/10/2 109/10/2
f 109/10/2 106/10/2 110/10/2
f 107/10/2 108/10/2 111/10/2
f 111/10/2 108/10/2 112/10/2
f 105/10/2 109/10/2 113/10/2
f 109/6/2 110/6/2 113/6/2
f 110/10/2 106/10/2 114/10/2
f 113/6/2 110/6/2 114/6/2
f 111/6/2 112/6/2 115/6/2
f 107/10/2 111/10/2 115/10/2
f 112/10/2 108/10/2 116/10/2
f 115/6/2 112/6/2 116/6/2
f 105/10/2 113/10/2 117/10/2
f 113/10/2 114/10/2 117/10/2
f 114/10/2 106/10/2 118/10/2
f 117/10/2 114/10/2 118/10/2
f 107/10/2 115/10/2 119/10/2
f 115/10/2 116/10/2 119/10/2
f 116/10/2 108/10/2 120/10/2
f 119/10/2 116/10/2 120/10/2
f 123/7/3 122/7/3 121/7/3
f 124/7/3 122/7/3 123/7/3
f 129/1/3 126/1/3 125/1/3
f 130/5/3 127/5/3 126/5/3
f 130/1/3 126/1/3 129/1/3
f 131/5/3 130/5/3 129/5/3
f 132/5/3 127/5/3 130/5/3
f 132/5/3 130/5/3 131/5/3
f 133/2/3 128/2/3 127/2/3
f 133/5/3 127/5/3 132/5/3
f 134/2/3 132/2/3 131/2/3
f 135/8/3 133/8/3 132/8/3
f 135/2/3 132/2/3 134/2/3
f 136/2/3 128/2/3 133/2/3
f 136/8/3 133/8/3 135/8/3
f 137/5/3 135/5/3 134/5/3
f 137/5/3 136/5/3 135/5/3
f 138/5/3 136/5/3 137/5/3
f 139/1/3 138/1/3 137/1/3
f 140/5/3 136/5/3 138/5/3
f 140/1/3 138/1/3 139/1/3
f 141/2/3 128/2/3 136/2/3
f 141/5/3 136/5/3 140/5/3
f 142/2/3 128/2/3 141/2/3
f 145/10/3 144/10/3 143/10/3
f 146/10/3 144/10/3 145/10/3
f 147/10/3 144/10/3 146/10/3
f 148/10/3 145/10/3 143/10/3
f 149/10/3 145/10/3 148/10/3
f 152/10/3 151/10/3 150/10/3
f 155/10/3 152/10/3 150/10/3
f 155/10/3 154/10/3 153/10/3
f 155/10/3 153/10/3 152/10/3
f 156/10/3 154/10/3 155/10/3
f 159/2/3 158/2/3 157/2/3
f 160/2/3 158/2/3 159/2/3
f 161/8/3 160/8/3 159/8/3
f 162/2/3 158/2/3 160/2/3
f 162/8/3 160/8/3 161/8/3
f 163/2/3 162/2/3 161/2/3
f 164/2/3 158/2/3 162/2/3
f 164/2/3 162/2/3 163/2/3
f 167/10/3 166/10/3 165/10/3
f 168/10/3 166/10/3 167/10/3
f 169/10/3 167/10/3 165/10/3
f 170/10/3 167/10/3 169/10/3
f 173/10/3 172/10/3 171/10/3
f 175/10/3 173/10/3 171/10/3
f 175/10/3 174/10/3 173/10/3
f 176/10/3 174/10/3 175/10/3
f 177/10/4 178/10/4 179/10/4
f 179/10/4 178/10/4 180/10/4
f 177/10/4 179/10/4 181/10/4
f 181/10/4 179/10/4 182/10/4
f 183/10/4 184/10/4 185/10/4
f 183/10/4 185/10/4 187/10/4
f 185/10/4 186/10/4 187/10/4
f 187/10/4 186/10/4 188/10/4
f 189/2/4 190/2/4 191/2/4
f 191/2/4 190/2/4 192/2/4
f 191/9/4 192/9/4 193/9/4
f 192/2/4 190/2/4 194/2/4
f 193/9/4 192/9/4 194/9/4
f 193/2/4 194/2/4 195/2/4
f 194/2/4 190/2/4 196/2/4
f 195/2/4 194/2/4 196/2/4
f 197/10/4 198/10/4 199/10/4
f 199/10/4 198/10/4 200/10/4
f 200/10/4 198/10/4 201/10/4
f 197/10/4 199/10/4 202/10/4
f 202/10/4 199/10/4 203/10/4
f 204/10/4 205/10/4 206/10/4
f 204/10/4 206/10/4 209/10/4
f 207/10/4 208/10/4 209/10/4
f 206/10/4 207/10/4 209/10/4
f 209/10/4 208/10/4 210/10/4
f 211/4/4 212/4/4 214/4/4
f 212/2/4 213/2/4 215/2/4
f 214/4/4 212/4/4 215/4/4
f 214/1/4 215/1/4 216/1/4
f 215/2/4 213/2/4 217/2/4
f 216/1/4 215/1/4 217/1/4
f 216/2/4 217/2/4 218/2/4
f 217/2/4 213/2/4 219/2/4
f 218/2/4 217/2/4 219/2/4
f 218/1/4 219/1/4 220/1/4
f 219/2/4 213/2/4 221/2/4
f 220/1/4 219/1/4 221/1/4
f 220/4/4 221/4/4 222/4/4
f 221/2/4 213/2/4 223/2/4
f 222/4/4 221/4/4 223/4/4
f 223/2/4 213/2/4 224/2/4
f 225/7/4 226/7/4 227/7/4
f 227/7/4 226/7/4 228/7/4
f 233/10/5 230/10/5 229/10/5
f 234/10/5 230/10/5 233/10/5
f 235/10/5 232/10/5 231/10/5
f 236/10/5 232/10/5 235/10/5
f 241/10/5 238/10/5 237/10/5
f 242/10/5 238/10/5 241/10/5
f 243/10/5 240/10/5 239/10/5
f 244/10/5 240/10/5 243/10/5
f 247/7/5 246/7/5 245/7/5
f 248/7/5 246/7/5 247/7/5
f 249/2/5 248/2/5 247/2/5
f 250/2/5 248/2/5 249/2/5
f 251/2/5 248/2/5 250/2/5
f 252/2/5 248/2/5 251/2/5
f 254/2/5 251/2/5 250/2/5
f 255/2/5 251/2/5 254/2/5
f 257/2/5 254/2/5 253/2/5
f 257/2/5 256/2/5 255/2/5
f 257/2/5 255/2/5 254/2/5
f 258/2/5 256/2/5 257/2/5
f 259/2/5 256/2/5 258/2/5
f 260/2/5 256/2/5 259/2/5
f 262/2/5 259/2/5 258/2/5
f 263/2/5 259/2/5 262/2/5
f 265/2/5 262/2/5 261/2/5
f 265/2/5 264/2/5 263/2/5
f 265/2/5 263/2/5 262/2/5
f 266/2/5 264/2/5 265/2/5
f 267/7/5 266/7/5 265/7/5
f 268/7/5 266/7/5 267/7/5
f 269/7/6 270/7/6 271/7/6
f 271/7/6 270/7/6 272/7/6
f 272/7/6 270/7/6 273/7/6
f 273/7/6 270/7/6 274/7/6
f 274/7/6 270/7/6 275/7/6
f 275/7/6 270/7/6 276/7/6
f 277/7/6 278/7/6 283/7/6
f 281/7/6 282/7/6 283/7/6
f 280/7/6 281/7/6 283/7/6
f 279/7/6 280/7/6 283/7/6
f 278/7/6 279/7/6 283/7/6
f 283/7/6 282/7/6 284/7/6
f 285/10/6 286/10/6 289/10/6
f 289/10/6 286/10/6 290/10/6
f 287/10/6 288/10/6 291/10/6
f 291/10/6 288/10/6 292/10/6
f 293/10/6 294/10/6 297/10/6
f 297/10/6 294/10/6 298/10/6
f 295/10/6 296/10/6 299/10/6
f 299/10/6 296/10/6 300/10/6
f 301/2/6 302/2/6 303/2/6
f 303/2/6 302/2/6 304/2/6
f 304/2/6 302/2/6 305/2/6
f 305/2/6 302/2/6 306/2/6
f 307/2/6 308/2/6 311/2/6
f 309/2/6 310/2/6 311/2/6
f 308/2/6 309/2/6 311/2/6
f 311/2/6 310/2/6 312/2/6
f 313/2/6 314/2/6 315/2/6
f 315/2/6 314/2/6 316/2/6
