# MagicaVoxel @ Ephtracy

# group
g Muzzle Flash

# material
mtllib Muzzle Flash.mtl
usemtl palette

# normals
vn -1 0 0
vn 1 0 0
vn 0 0 1
vn 0 0 -1
vn 0 -1 0
vn 0 1 0

# texcoords
vt 0.00195313 0.5
vt 0.306641 0.5
vt 0.958984 0.5

# verts
v -2 3 -0
v -2 3 -3
v -2 4 -0
v -2 4 -3
v -1 2 -1
v -1 2 -3
v -1 3 3
v -1 3 -0
v -1 3 -1
v -1 3 -3
v -1 4 3
v -1 4 -0
v -1 4 -1
v -1 4 -3
v -1 5 -1
v -1 5 -3
v 0 1 -0
v 0 1 -1
v 0 1 -3
v 0 2 4
v 0 2 -0
v 0 2 -1
v 0 2 -3
v 0 3 6
v 0 3 4
v 0 3 3
v 0 3 -1
v 0 3 -3
v 0 3 -4
v 0 4 6
v 0 4 4
v 0 4 3
v 0 4 -1
v 0 4 -3
v 0 4 -4
v 0 5 4
v 0 5 -0
v 0 5 -1
v 0 5 -3
v 0 6 -0
v 0 6 -3
v 1 1 -0
v 1 1 -1
v 1 1 -3
v 1 2 4
v 1 2 -0
v 1 2 -1
v 1 2 -3
v 1 3 6
v 1 3 4
v 1 3 3
v 1 3 -1
v 1 3 -3
v 1 3 -4
v 1 4 6
v 1 4 4
v 1 4 3
v 1 4 -1
v 1 4 -3
v 1 4 -4
v 1 5 4
v 1 5 -0
v 1 5 -1
v 1 5 -3
v 1 6 -0
v 1 6 -3
v 2 2 -1
v 2 2 -3
v 2 3 3
v 2 3 -0
v 2 3 -1
v 2 3 -3
v 2 4 3
v 2 4 -0
v 2 4 -1
v 2 4 -3
v 2 5 -1
v 2 5 -3
v 3 3 -0
v 3 3 -3
v 3 4 -0
v 3 4 -3
v 0 3 6
v 0 4 6
v 1 3 6
v 1 4 6
v 0 2 4
v 0 3 4
v 0 4 4
v 0 5 4
v 1 2 4
v 1 3 4
v 1 4 4
v 1 5 4
v -1 3 3
v -1 4 3
v 0 3 3
v 0 4 3
v 1 3 3
v 1 4 3
v 2 3 3
v 2 4 3
v -2 3 -0
v -2 4 -0
v -1 3 -0
v -1 4 -0
v 0 1 -0
v 0 2 -0
v 0 5 -0
v 0 6 -0
v 1 1 -0
v 1 2 -0
v 1 5 -0
v 1 6 -0
v 2 3 -0
v 2 4 -0
v 3 3 -0
v 3 4 -0
v -1 2 -1
v -1 3 -1
v -1 4 -1
v -1 5 -1
v 0 2 -1
v 0 3 -1
v 0 4 -1
v 0 5 -1
v 1 2 -1
v 1 3 -1
v 1 4 -1
v 1 5 -1
v 2 2 -1
v 2 3 -1
v 2 4 -1
v 2 5 -1
v -2 3 -3
v -2 4 -3
v -1 2 -3
v -1 3 -3
v -1 4 -3
v -1 5 -3
v 0 1 -3
v 0 2 -3
v 0 3 -3
v 0 4 -3
v 0 5 -3
v 0 6 -3
v 1 1 -3
v 1 2 -3
v 1 3 -3
v 1 4 -3
v 1 5 -3
v 1 6 -3
v 2 2 -3
v 2 3 -3
v 2 4 -3
v 2 5 -3
v 3 3 -3
v 3 4 -3
v 0 3 -4
v 0 4 -4
v 1 3 -4
v 1 4 -4
v 0 1 -0
v 1 1 -0
v 0 1 -1
v 1 1 -1
v 0 1 -3
v 1 1 -3
v 0 2 4
v 1 2 4
v 0 2 -0
v 1 2 -0
v -1 2 -1
v 0 2 -1
v 1 2 -1
v 2 2 -1
v -1 2 -3
v 0 2 -3
v 1 2 -3
v 2 2 -3
v 0 3 6
v 1 3 6
v 0 3 4
v 1 3 4
v -1 3 3
v 0 3 3
v 1 3 3
v 2 3 3
v -2 3 -0
v -1 3 -0
v 2 3 -0
v 3 3 -0
v -1 3 -1
v 0 3 -1
v 1 3 -1
v 2 3 -1
v -2 3 -3
v -1 3 -3
v 0 3 -3
v 1 3 -3
v 2 3 -3
v 3 3 -3
v 0 3 -4
v 1 3 -4
v 0 4 6
v 1 4 6
v 0 4 4
v 1 4 4
v -1 4 3
v 0 4 3
v 1 4 3
v 2 4 3
v -2 4 -0
v -1 4 -0
v 2 4 -0
v 3 4 -0
v -1 4 -1
v 0 4 -1
v 1 4 -1
v 2 4 -1
v -2 4 -3
v -1 4 -3
v 0 4 -3
v 1 4 -3
v 2 4 -3
v 3 4 -3
v 0 4 -4
v 1 4 -4
v 0 5 4
v 1 5 4
v 0 5 -0
v 1 5 -0
v -1 5 -1
v 0 5 -1
v 1 5 -1
v 2 5 -1
v -1 5 -3
v 0 5 -3
v 1 5 -3
v 2 5 -3
v 0 6 -0
v 1 6 -0
v 0 6 -3
v 1 6 -3

# faces
f 3/1/1 2/1/1 1/1/1
f 4/1/1 2/1/1 3/1/1
f 9/1/1 6/1/1 5/1/1
f 10/1/1 6/1/1 9/1/1
f 11/1/1 8/1/1 7/1/1
f 12/1/1 8/1/1 11/1/1
f 15/1/1 14/1/1 13/1/1
f 16/1/1 14/1/1 15/1/1
f 21/3/1 18/3/1 17/3/1
f 22/1/1 19/1/1 18/1/1
f 22/3/1 18/3/1 21/3/1
f 23/1/1 19/1/1 22/1/1
f 25/3/1 21/3/1 20/3/1
f 25/3/1 22/3/1 21/3/1
f 26/3/1 22/3/1 25/3/1
f 27/3/1 22/3/1 26/3/1
f 30/3/1 25/3/1 24/3/1
f 30/3/1 26/3/1 25/3/1
f 31/3/1 26/3/1 30/3/1
f 32/3/1 26/3/1 31/3/1
f 34/1/1 29/1/1 28/1/1
f 35/1/1 29/1/1 34/1/1
f 36/3/1 33/3/1 32/3/1
f 36/3/1 32/3/1 31/3/1
f 37/3/1 33/3/1 36/3/1
f 38/3/1 33/3/1 37/3/1
f 40/3/1 39/3/1 38/3/1
f 40/3/1 38/3/1 37/3/1
f 41/3/1 39/3/1 40/3/1
f 42/3/2 43/3/2 46/3/2
f 43/1/2 44/1/2 47/1/2
f 46/3/2 43/3/2 47/3/2
f 47/1/2 44/1/2 48/1/2
f 45/3/2 46/3/2 50/3/2
f 46/3/2 47/3/2 50/3/2
f 50/3/2 47/3/2 51/3/2
f 51/3/2 47/3/2 52/3/2
f 49/3/2 50/3/2 55/3/2
f 50/3/2 51/3/2 55/3/2
f 55/3/2 51/3/2 56/3/2
f 56/3/2 51/3/2 57/3/2
f 53/1/2 54/1/2 59/1/2
f 59/1/2 54/1/2 60/1/2
f 57/3/2 58/3/2 61/3/2
f 56/3/2 57/3/2 61/3/2
f 61/3/2 58/3/2 62/3/2
f 62/3/2 58/3/2 63/3/2
f 63/3/2 64/3/2 65/3/2
f 62/3/2 63/3/2 65/3/2
f 65/3/2 64/3/2 66/3/2
f 67/1/2 68/1/2 71/1/2
f 71/1/2 68/1/2 72/1/2
f 69/1/2 70/1/2 73/1/2
f 73/1/2 70/1/2 74/1/2
f 75/1/2 76/1/2 77/1/2
f 77/1/2 76/1/2 78/1/2
f 79/1/2 80/1/2 81/1/2
f 81/1/2 80/1/2 82/1/2
f 85/3/3 84/3/3 83/3/3
f 86/3/3 84/3/3 85/3/3
f 91/3/3 88/3/3 87/3/3
f 92/3/3 88/3/3 91/3/3
f 93/3/3 90/3/3 89/3/3
f 94/3/3 90/3/3 93/3/3
f 97/1/3 96/1/3 95/1/3
f 98/1/3 96/1/3 97/1/3
f 101/1/3 100/1/3 99/1/3
f 102/1/3 100/1/3 101/1/3
f 105/1/3 104/1/3 103/1/3
f 106/1/3 104/1/3 105/1/3
f 111/3/3 108/3/3 107/3/3
f 112/3/3 108/3/3 111/3/3
f 113/3/3 110/3/3 109/3/3
f 114/3/3 110/3/3 113/3/3
f 117/1/3 116/1/3 115/1/3
f 118/1/3 116/1/3 117/1/3
f 123/1/3 120/1/3 119/1/3
f 124/1/3 120/1/3 123/1/3
f 125/1/3 122/1/3 121/1/3
f 126/1/3 122/1/3 125/1/3
f 131/1/3 128/1/3 127/1/3
f 132/1/3 128/1/3 131/1/3
f 133/1/3 130/1/3 129/1/3
f 134/1/3 130/1/3 133/1/3
f 135/1/4 136/1/4 138/1/4
f 138/1/4 136/1/4 139/1/4
f 137/1/4 138/1/4 142/1/4
f 139/1/4 140/1/4 142/1/4
f 138/1/4 139/1/4 142/1/4
f 142/1/4 140/1/4 143/1/4
f 143/1/4 140/1/4 144/1/4
f 144/1/4 140/1/4 145/1/4
f 141/1/4 142/1/4 147/1/4
f 142/1/4 143/1/4 147/1/4
f 147/1/4 143/1/4 148/1/4
f 148/1/4 143/1/4 149/1/4
f 144/1/4 145/1/4 150/1/4
f 145/3/4 146/3/4 151/3/4
f 150/1/4 145/1/4 151/1/4
f 151/3/4 146/3/4 152/3/4
f 149/1/4 150/1/4 153/1/4
f 148/1/4 149/1/4 153/1/4
f 150/1/4 151/1/4 153/1/4
f 153/1/4 151/1/4 154/1/4
f 154/1/4 151/1/4 155/1/4
f 155/1/4 151/1/4 156/1/4
f 154/1/4 155/1/4 157/1/4
f 157/1/4 155/1/4 158/1/4
f 159/1/4 160/1/4 161/1/4
f 161/1/4 160/1/4 162/1/4
f 165/3/5 164/3/5 163/3/5
f 166/3/5 164/3/5 165/3/5
f 167/1/5 166/1/5 165/1/5
f 168/1/5 166/1/5 167/1/5
f 171/3/5 170/3/5 169/3/5
f 172/3/5 170/3/5 171/3/5
f 177/1/5 174/1/5 173/1/5
f 178/1/5 174/1/5 177/1/5
f 179/1/5 176/1/5 175/1/5
f 180/1/5 176/1/5 179/1/5
f 183/3/5 182/3/5 181/3/5
f 184/3/5 182/3/5 183/3/5
f 190/1/5 186/1/5 185/1/5
f 191/1/5 188/1/5 187/1/5
f 193/1/5 190/1/5 189/1/5
f 193/1/5 186/1/5 190/1/5
f 194/1/5 186/1/5 193/1/5
f 195/1/5 192/1/5 191/1/5
f 195/1/5 191/1/5 187/1/5
f 196/1/5 192/1/5 195/1/5
f 197/1/5 193/1/5 189/1/5
f 198/1/5 193/1/5 197/1/5
f 201/1/5 192/1/5 196/1/5
f 202/1/5 192/1/5 201/1/5
f 203/1/5 200/1/5 199/1/5
f 204/1/5 200/1/5 203/1/5
f 205/3/6 206/3/6 207/3/6
f 207/3/6 206/3/6 208/3/6
f 209/1/6 210/1/6 214/1/6
f 211/1/6 212/1/6 215/1/6
f 213/1/6 214/1/6 217/1/6
f 214/1/6 210/1/6 217/1/6
f 217/1/6 210/1/6 218/1/6
f 215/1/6 216/1/6 219/1/6
f 211/1/6 215/1/6 219/1/6
f 219/1/6 216/1/6 220/1/6
f 213/1/6 217/1/6 221/1/6
f 221/1/6 217/1/6 222/1/6
f 220/1/6 216/1/6 225/1/6
f 225/1/6 216/1/6 226/1/6
f 223/1/6 224/1/6 227/1/6
f 227/1/6 224/1/6 228/1/6
f 229/3/6 230/3/6 231/3/6
f 231/3/6 230/3/6 232/3/6
f 233/1/6 234/1/6 237/1/6
f 237/1/6 234/1/6 238/1/6
f 235/1/6 236/1/6 239/1/6
f 239/1/6 236/1/6 240/1/6
f 241/3/6 242/3/6 243/3/6
f 243/3/6 242/3/6 244/3/6
